<?xml version="1.0" encoding="UTF-8"?>
<svg xmlns="http://www.w3.org/2000/svg" xmlns:xlink="http://www.w3.org/1999/xlink" width="5000px" height="5000px" viewBox="0 0 5000 5000" version="1.1">
<g id="surface1">
<path style=" stroke:none;fill-rule:nonzero;fill:rgb(100%,100%,100%);fill-opacity:1;" d="M 3558.75 2742.132812 C 3558.75 2157.757812 3085.023438 1684.03125 2500.648438 1684.03125 C 1916.273438 1684.03125 1442.546875 2157.757812 1442.546875 2742.132812 C 1442.546875 3326.507812 1916.273438 3800.234375 2500.648438 3800.234375 C 3085.023438 3800.234375 3558.75 3326.507812 3558.75 2742.132812 Z M 3558.75 2742.132812 "/>
<path style=" stroke:none;fill-rule:nonzero;fill:rgb(100%,100%,100%);fill-opacity:1;" d="M 1347.367188 1176.21875 L 3651.054688 1176.21875 L 3651.054688 1739.890625 L 1347.367188 1739.890625 Z M 1347.367188 1176.21875 "/>
<path style=" stroke:none;fill-rule:nonzero;fill:rgb(100%,100%,100%);fill-opacity:1;" d="M 1195.445312 1327.90625 L 3765.671875 1327.90625 L 3765.671875 1946.71875 L 1195.445312 1946.71875 Z M 1195.445312 1327.90625 "/>
<path style=" stroke:none;fill-rule:nonzero;fill:rgb(100%,100%,100%);fill-opacity:1;" d="M 1296.367188 1473.976562 L 3866.59375 1473.976562 L 3866.59375 2092.78125 L 1296.367188 2092.78125 Z M 1296.367188 1473.976562 "/>
<path style=" stroke:none;fill-rule:nonzero;fill:rgb(0%,0%,0%);fill-opacity:1;" d="M 1306.609375 2620.382812 C 1318.851562 2535.023438 1308.460938 2453.851562 1285.054688 2373.679688 C 1271.109375 2325.953125 1267.070312 2276.820312 1266.289062 2227.273438 C 1264.960938 2143.304688 1266.5625 2059.039062 1245.265625 1976.734375 C 1238.414062 1950.21875 1228.398438 1925.796875 1206.789062 1907.078125 C 1193.578125 1895.617188 1179.960938 1889.03125 1162.570312 1893.429688 C 1134.273438 1900.5625 1107.507812 1892.445312 1080.671875 1885.429688 C 1068.257812 1882.1875 1063.757812 1871.890625 1063.226562 1860.703125 C 1055.367188 1698.585938 1056.539062 1537.179688 1137.023438 1389.554688 C 1240.117188 1200.460938 1401.59375 1092.273438 1613.585938 1061.789062 C 1708.40625 1048.148438 1804.65625 1056.773438 1900.242188 1056.609375 C 2167.96875 1056.179688 2435.703125 1056.796875 2703.429688 1056.945312 C 2901.578125 1057.046875 3099.742188 1055.65625 3297.859375 1057.507812 C 3535.546875 1059.71875 3718.820312 1161.648438 3843.617188 1364.976562 C 3862.875 1396.335938 3880.023438 1429.398438 3893 1464.117188 C 3896.515625 1473.507812 3904.789062 1475.390625 3910.9375 1480.757812 C 3920.75 1489.304688 3937.90625 1497.757812 3914.625 1511.109375 C 3907.867188 1514.992188 3910.34375 1522.976562 3912.242188 1528.109375 C 3948.523438 1626.320312 3937.023438 1728.53125 3939.890625 1829.890625 C 3943.578125 1960.171875 3940.382812 2090.335938 3940.28125 2220.554688 C 3940.132812 2434.882812 3941.953125 2649.203125 3942.664062 2863.515625 C 3943.039062 2975.320312 3941.453125 3087.15625 3943.226562 3198.929688 C 3945.460938 3338.484375 3921.90625 3472.8125 3859.820312 3597.914062 C 3761.53125 3795.976562 3598.421875 3906.84375 3381.179688 3938.046875 C 3273.898438 3953.460938 3165.625 3941.492188 3057.84375 3941.953125 C 2729.164062 3943.359375 2400.476562 3942.835938 2071.789062 3942.867188 C 1962.242188 3942.882812 1852.632812 3943.90625 1743.125 3941.507812 C 1663.398438 3939.773438 1584.546875 3934.273438 1505.351562 3916.015625 C 1422.484375 3896.921875 1358.460938 3850.679688 1298.539062 3799.015625 C 1162.15625 3681.4375 1087.554688 3528.210938 1062.398438 3350.796875 C 1058.203125 3321.210938 1055.601562 3291.0625 1057.101562 3260.820312 C 1057.84375 3246.109375 1060.734375 3232.96875 1073.914062 3224.867188 C 1088.039062 3216.171875 1097.046875 3228.585938 1106.695312 3234.867188 C 1136.992188 3254.601562 1161.546875 3249.984375 1187.140625 3219.96875 C 1217.546875 3184.304688 1233.445312 3141.554688 1245.484375 3097.65625 C 1261.171875 3040.46875 1281.09375 2984.132812 1286.789062 2924.554688 C 1288.335938 2908.460938 1289.890625 2892.21875 1289.304688 2876.117188 C 1286.171875 2790.945312 1301.304688 2707.0625 1306.609375 2620.382812 M 2671.617188 1197.640625 C 2577.5625 1197.25 2483.546875 1199.070312 2389.5 1200.59375 C 2249.1875 1202.851562 2108.835938 1201.054688 1968.515625 1197.875 C 1912.265625 1196.585938 1856.179688 1203.210938 1799.757812 1199.953125 C 1715.8125 1195.109375 1631.164062 1192.039062 1548.898438 1212.210938 C 1399.015625 1248.945312 1289.132812 1333.710938 1231.945312 1481.914062 C 1210.953125 1536.273438 1203.53125 1591.898438 1199.164062 1648.625 C 1197.007812 1676.492188 1198.78125 1704.671875 1198.78125 1731.773438 C 1222.828125 1731.773438 1242.03125 1731.789062 1261.226562 1731.773438 C 1440.960938 1731.726562 1620.6875 1731.625 1800.40625 1731.65625 C 2444.515625 1731.773438 3088.625 1731.898438 3732.742188 1732.164062 C 3750.445312 1732.164062 3768.1875 1733.148438 3785.867188 1734.445312 C 3808.5625 1736.125 3813.132812 1731.382812 3810.460938 1708.507812 C 3807.4375 1682.539062 3805.523438 1656.4375 3802.109375 1630.523438 C 3786.414062 1511.242188 3748.078125 1403.070312 3653.328125 1321.453125 C 3568.867188 1248.695312 3474.273438 1203.992188 3360.546875 1200.726562 C 3297.3125 1198.914062 3234.320312 1198.320312 3171.09375 1200.359375 C 3094.039062 1202.851562 3016.882812 1197.898438 2939.859375 1198.640625 C 2851.953125 1199.492188 2764.117188 1195.835938 2671.617188 1197.640625 M 2112.328125 2113.625 C 2114.609375 2110.515625 2116.96875 2107.46875 2119.171875 2104.296875 C 2133.953125 2083.03125 2143.1875 2060.085938 2130.179688 2035.226562 C 2115.867188 2007.867188 2092.726562 1994.1875 2060.734375 1993.71875 C 2024.0625 1993.203125 1998.539062 2011.585938 1980.28125 2039.8125 C 1918.75 2134.953125 1863.007812 2232.984375 1825.273438 2340.710938 C 1770.054688 2498.289062 1755.007812 2656.484375 1806.742188 2818.15625 C 1837.054688 2912.84375 1881.507812 3000.539062 1933.132812 3084.914062 C 1956.4375 3122.992188 1978.367188 3162.351562 2010.273438 3194.226562 C 2034.710938 3218.648438 2069.328125 3224.460938 2097.65625 3209.765625 C 2125.96875 3195.078125 2136.90625 3169.890625 2136.546875 3138.90625 C 2136.328125 3119.71875 2125.085938 3105.859375 2114.210938 3091.828125 C 2052.976562 3012.820312 2001.429688 2928.007812 1962.65625 2835.804688 C 1923.195312 2741.984375 1900.78125 2644.789062 1919.734375 2542.921875 C 1948.976562 2385.71875 2014.335938 2244.007812 2112.328125 2113.625 M 3112.546875 2616.914062 C 3103.992188 2644.867188 3096.820312 2673.320312 3086.648438 2700.664062 C 3035.171875 2839.078125 2967.203125 2969.226562 2887.0625 3093.085938 C 2873.523438 3114.007812 2871.210938 3136.28125 2875.1875 3159.59375 C 2880.226562 3189.164062 2905.914062 3215.304688 2930.554688 3217.679688 C 2975.734375 3222.007812 3003.632812 3206.609375 3024.21875 3166.101562 C 3028.757812 3157.179688 3033.640625 3148.421875 3038.234375 3139.507812 C 3114.976562 2991.03125 3196.53125 2844.648438 3237.515625 2680.640625 C 3245.140625 2650.132812 3252.9375 2620.054688 3248.671875 2587.648438 C 3239.773438 2519.9375 3219.171875 2455.554688 3195.648438 2392.03125 C 3148.335938 2264.296875 3082.335938 2145.757812 3012.546875 2029.414062 C 2987.742188 1988.078125 2939.523438 1981.351562 2899.625 2008.867188 C 2866.273438 2031.859375 2863.046875 2066.117188 2890.78125 2107.78125 C 2906.148438 2130.875 2924.664062 2152.210938 2937.414062 2176.617188 C 2994.5 2285.867188 3050.867188 2395.617188 3090.742188 2512.671875 C 3101.804688 2545.15625 3114.601562 2577.765625 3112.546875 2616.914062 M 2575.546875 2317.054688 C 2549.59375 2363.382812 2522.523438 2409.117188 2497.914062 2456.132812 C 2442.921875 2561.226562 2385.578125 2665.015625 2327.78125 2768.578125 C 2303.773438 2811.570312 2281.078125 2855.320312 2258.59375 2899.148438 C 2252.359375 2911.328125 2248.46875 2924.578125 2251.953125 2939.21875 C 2259.40625 2970.460938 2283.679688 2993.96875 2315.132812 2999 C 2346.3125 3003.992188 2381.46875 2986.5 2397.296875 2955.46875 C 2455.421875 2841.476562 2516.523438 2729.09375 2578.601562 2617.234375 C 2633.9375 2517.53125 2684.5625 2415.101562 2750.867188 2321.804688 C 2760.851562 2307.765625 2767.625 2292.476562 2766.234375 2274.4375 C 2763.945312 2244.617188 2743.3125 2217.851562 2715.25 2209.117188 C 2681.335938 2198.554688 2642.835938 2210.140625 2622.117188 2238.640625 C 2604.890625 2262.34375 2589.929688 2287.570312 2575.546875 2317.054688 Z M 2575.546875 2317.054688 "/>
<path style=" stroke:none;fill-rule:nonzero;fill:rgb(0%,0%,0%);fill-opacity:1;" d="M 3428.570312 1347.296875 C 3512.226562 1332.570312 3587.5 1387.875 3590.679688 1469.578125 C 3592.8125 1524.460938 3561.179688 1564.21875 3515.0625 1590.929688 C 3427.007812 1641.929688 3327.007812 1572.507812 3325.054688 1479.398438 C 3323.609375 1410 3356.304688 1367.273438 3428.570312 1347.296875 Z M 3428.570312 1347.296875 "/>
<path style=" stroke:none;fill-rule:nonzero;fill:rgb(0%,0%,0%);fill-opacity:1;" d="M 3193.59375 1543.78125 C 3150.96875 1602.632812 3088.296875 1620.921875 3028.34375 1593.1875 C 2975.015625 1568.515625 2940.570312 1501.101562 2952.6875 1445.367188 C 2964.21875 1392.375 2997.179688 1360.414062 3049.304688 1348.132812 C 3105.3125 1334.9375 3154.382812 1349.1875 3190.84375 1393.414062 C 3225.273438 1435.171875 3223.726562 1482.742188 3201.53125 1530.414062 C 3199.59375 1534.578125 3196.828125 1538.367188 3193.59375 1543.78125 Z M 3193.59375 1543.78125 "/>
<path style=" stroke:none;fill-rule:nonzero;fill:rgb(0%,0%,0%);fill-opacity:1;" d="M 1891.320312 1351.546875 C 1950.15625 1337.992188 2014.335938 1369.460938 2037.242188 1421.859375 C 2062.28125 1479.125 2041.359375 1547.078125 1987.28125 1582.265625 C 1943.679688 1610.617188 1898.132812 1616.765625 1852.648438 1587.835938 C 1802 1555.640625 1784.984375 1506.523438 1793.898438 1449.640625 C 1802.273438 1396.09375 1837.617188 1364.992188 1891.320312 1351.546875 Z M 1891.320312 1351.546875 "/>
<path style=" stroke:none;fill-rule:nonzero;fill:rgb(0%,0%,0%);fill-opacity:1;" d="M 1640.859375 1391.460938 C 1676.390625 1435.664062 1679.976562 1491.21875 1651.492188 1539.484375 C 1622.3125 1588.90625 1570.460938 1614.164062 1519.140625 1603.976562 C 1470.835938 1594.375 1431.03125 1551.085938 1421.929688 1498.234375 C 1412.367188 1442.695312 1431.726562 1394.632812 1474.59375 1367.53125 C 1518.601562 1339.695312 1575.492188 1342.085938 1620.257812 1373.929688 C 1627.125 1378.820312 1633.25 1384.78125 1640.859375 1391.460938 Z M 1640.859375 1391.460938 "/>
<path style=" stroke:none;fill-rule:nonzero;fill:rgb(0.392157%,0.392157%,0%);fill-opacity:1;" d="M 1056.59375 1848.757812 L 1362.9375 1848.757812 L 1362.9375 3288.554688 L 1056.59375 3288.554688 Z M 1056.59375 1848.757812 "/>
</g>
</svg>
